<svg width="356" height="320" viewBox="0 0 356 320" fill="none" xmlns="http://www.w3.org/2000/svg">
<path d="M1.632 19H5.256V4.336H9.408V19H13.032V1.672H1.632V19ZM23.1199 19.312C29.0959 19.312 29.2159 15.352 29.2159 10.216C29.2159 5.056 29.0479 1.216 23.1679 1.216C17.6479 1.216 17.1919 5.296 17.1919 10.096C17.1919 15.04 17.4799 19.312 23.1199 19.312ZM23.1679 16.744C21.0799 16.744 20.8879 14.584 20.8879 10.696C20.8879 6.016 20.9119 3.808 23.2159 3.808C25.5919 3.808 25.5199 6.256 25.5199 9.952C25.5199 14.512 25.4959 16.744 23.1679 16.744ZM31.7025 22.384H35.0865V19H42.7425V22.384H46.1265V16.288H44.8785V1.672H34.7505C34.7505 7.888 34.4145 10.816 34.1265 12.184C33.7905 13.816 33.2865 15.352 32.8305 16.288H31.7025V22.384ZM36.4545 16.288C36.8625 15.472 37.2225 14.104 37.4625 12.712C37.6785 11.512 38.1345 8.92 38.1345 4.336H41.2545V16.288H36.4545ZM48.0654 19H51.6414L52.6254 15.16H57.5694L58.5294 19H62.3454L57.6414 1.672H52.8654L48.0654 19ZM53.3214 12.544L55.0254 5.008L56.8254 12.544H53.3214ZM66.5842 19H70.2562V4.48H74.2882V1.672H62.6002V4.48H66.5842V19ZM77.2883 19H83.9362C87.5363 19 88.7363 16.792 88.7363 13.648C88.7363 11.032 87.9202 8.392 83.5283 8.392H80.9122V1.672H77.2883V19ZM80.9122 16.288V11.104H82.9522C84.2963 11.104 85.0642 12.184 85.0642 13.552C85.0642 14.968 84.6802 16.288 82.8563 16.288H80.9122ZM98.6938 19H102.342V11.944H104.718C108.27 11.944 109.83 10.384 109.83 6.88C109.83 2.656 107.718 1.672 104.742 1.672H98.6938V19ZM102.342 9.28V4.336H103.326C105.006 4.336 106.158 4.552 106.158 6.808C106.158 8.488 105.39 9.28 103.806 9.28H102.342ZM110.737 19H114.313L115.297 15.16H120.241L121.201 19H125.017L120.313 1.672H115.537L110.737 19ZM115.993 12.544L117.697 5.008L119.497 12.544H115.993ZM127.977 19H134.265C135.801 19 139.617 19.168 139.617 13.888C139.617 9.328 136.905 8.608 133.905 8.608H131.601V4.336H138.489V1.672H127.977V19ZM131.601 16.288V11.296H133.593C135.417 11.296 135.993 12.256 135.993 13.84C135.993 16.312 134.265 16.288 133.497 16.288H131.601ZM149.256 19.312C155.232 19.312 155.352 15.352 155.352 10.216C155.352 5.056 155.184 1.216 149.304 1.216C143.784 1.216 143.328 5.296 143.328 10.096C143.328 15.04 143.616 19.312 149.256 19.312ZM149.304 16.744C147.216 16.744 147.024 14.584 147.024 10.696C147.024 6.016 147.048 3.808 149.352 3.808C151.728 3.808 151.656 6.256 151.656 9.952C151.656 14.512 151.632 16.744 149.304 16.744ZM161.726 19H165.398V4.48H169.43V1.672H157.742V4.48H161.726V19ZM173.534 19H177.254L184.07 1.672H180.566L177.566 9.88L174.71 1.672H170.87L175.742 14.2L173.534 19ZM1.632 48H5.28V40.368H9.384V48H13.032V30.672H9.384V37.536H5.28V30.672H1.632V48ZM16.0639 48H19.6399L20.6239 44.16H25.5679L26.5279 48H30.3439L25.6399 30.672H20.8639L16.0639 48ZM21.3199 41.544L23.0239 34.008L24.8239 41.544H21.3199ZM39.8241 48H46.1841C49.4001 48 51.5841 47.016 51.5841 43.296C51.5841 40.656 50.6001 39.336 48.3441 39C50.2881 38.592 51.2961 37.248 51.2961 35.04C51.2961 31.344 48.8001 30.672 45.7761 30.672H39.8241V48ZM43.4241 45.336V40.416H45.1041C46.9761 40.416 47.9601 40.824 47.9601 42.84C47.9601 45.312 46.5441 45.336 44.4561 45.336H43.4241ZM43.4241 37.752V33.336H44.2641C46.0161 33.336 47.7681 33.168 47.7681 35.496V35.736C47.7681 37.056 46.9521 37.752 45.4641 37.752H43.4241ZM55.7679 48H62.1759C65.7759 48 66.9759 45.792 66.9759 42.648C66.9759 40.032 66.1599 37.392 61.7679 37.392H59.3919V30.672H55.7679V48ZM59.3919 45.288V40.104H61.1919C62.5359 40.104 63.3039 41.184 63.3039 42.552C63.3039 43.968 62.9199 45.288 61.0959 45.288H59.3919ZM68.4879 48H72.1119V30.672H68.4879V48ZM82.0571 48.192C85.6811 48.192 87.4571 46.368 87.4571 42.672V42.168H83.8811C83.8811 43.464 83.7851 45.576 82.0091 45.576C79.9691 45.576 79.8731 43.08 79.8731 39.624C79.8731 35.688 79.9691 33.048 81.9851 33.048C83.1371 33.048 83.7131 33.96 83.7131 35.76V36.144H87.2651V35.544C87.2651 32.112 85.5851 30.408 82.2251 30.408C76.4171 30.408 76.2491 34.464 76.2491 39.36C76.2491 44.112 76.4891 48.192 82.0571 48.192ZM93.6171 48H97.2891V33.48H101.321V30.672H89.6331V33.48H93.6171V48ZM101.592 48H105.168L106.152 44.16H111.096L112.056 48H115.872L111.168 30.672H106.392L101.592 48ZM106.848 41.544L108.552 34.008L110.352 41.544H106.848ZM118.832 48H125.192C128.408 48 130.592 47.016 130.592 43.296C130.592 40.656 129.608 39.336 127.352 39C129.296 38.592 130.304 37.248 130.304 35.04C130.304 31.344 127.808 30.672 124.784 30.672H118.832V48ZM122.432 45.336V40.416H124.112C125.984 40.416 126.968 40.824 126.968 42.84C126.968 45.312 125.552 45.336 123.464 45.336H122.432ZM122.432 37.752V33.336H123.272C125.024 33.336 126.776 33.168 126.776 35.496V35.736C126.776 37.056 125.96 37.752 124.472 37.752H122.432ZM134.44 48H138.088V39.24L142.264 48H146.344L141.496 38.448L146.344 30.672H142.36L138.088 37.968V30.672H134.44V48ZM150.416 48H154.136L160.952 30.672H157.448L154.448 38.88L151.592 30.672H147.752L152.624 43.2L150.416 48Z" transform="translate(84 32)" fill="black"/>
<rect x="1" y="1" width="318" height="318" transform="translate(320) scale(-1 1)" stroke="black" stroke-width="2"/>
<rect x="1" y="1" width="286" height="286" transform="translate(356 16) scale(-1 1)" stroke="black" stroke-width="2"/>
<path d="M0 16L36 0" transform="translate(319.5 303)" stroke="black" stroke-width="2"/>
<path d="M0 0L36 16" transform="translate(319.5 1)" stroke="black" stroke-width="2"/>
<path d="M0 0L68 16" transform="translate(1 1)" stroke="black" stroke-width="2"/>
<path d="M0 16L68 0" transform="translate(1 303)" stroke="black" stroke-width="2"/>
</svg>
