<svg width="160" height="160" viewBox="0 0 160 160" fill="none" xmlns="http://www.w3.org/2000/svg">
<rect x="1" y="1" width="158" height="158" stroke="black" stroke-width="2"/>
<path d="M31.8826 88H40.6186C45.6106 88 48.9706 86.128 48.9706 81.328C48.9706 76.912 47.1466 75.616 43.0666 75.376V75.328C44.6026 74.992 48.3946 74.176 48.3946 69.616C48.3946 65.344 45.4666 63.76 41.0026 63.76H31.8826V88ZM36.0106 84.88V76.768H39.1306C43.2586 76.768 44.7946 77.92 44.7946 81.184C44.7946 83.488 43.8826 84.88 40.8106 84.88H36.0106ZM36.0106 74.032V66.88H40.9066C43.4986 66.88 44.2186 68.512 44.2186 70.288C44.2186 72.592 42.2986 74.032 39.1306 74.032H36.0106ZM54.2273 88H58.6913L64.0673 78.064L69.7793 88H74.6273L66.7553 75.376L73.9553 63.76H69.5393L64.4513 72.592L59.6993 63.76H54.8993L61.7153 75.376L54.2273 88ZM88.7209 88.672C96.9769 88.672 98.1769 83.2 98.1769 76.096C98.1769 68.8 97.3609 63.088 88.9129 63.088C80.6569 63.088 79.6969 68.704 79.6969 75.76C79.6969 82.72 80.3689 88.672 88.7209 88.672ZM88.9129 85.36C83.8729 85.36 83.9689 80.464 83.9689 75.616C83.9689 71.824 83.9209 66.352 89.0569 66.352C93.8569 66.352 93.9529 71.296 93.9529 74.944C93.9529 79.936 94.0009 85.36 88.9129 85.36ZM103.614 93.664H107.55V88H121.758V93.664H125.694V84.784H123.342V63.76H108.846V66.16C108.846 74.944 108.126 81.184 105.198 84.784H103.614V93.664ZM109.566 84.784C111.87 81.808 112.686 75.568 112.686 67.888V66.88H119.214V84.784H109.566Z" transform="translate(2 2)" fill="black"/>
</svg>
