<svg width="96" height="96" viewBox="0 0 96 96" fill="none" xmlns="http://www.w3.org/2000/svg">
<path fill-rule="evenodd" clip-rule="evenodd" d="M0 0H96V96H0V0ZM2.8793 2.89876V93.1012H93.1207V2.89876H2.8793Z" fill="black"/>
<path fill-rule="evenodd" clip-rule="evenodd" d="M0 0H55.4089V55.4174H0V0ZM2.8793 2.89876V52.5187H52.5296V2.89876H2.8793Z" transform="translate(20.2939 20.2908)" fill="black"/>
<path fill-rule="evenodd" clip-rule="evenodd" d="M20.2955 22.3481L0 2.05684L2.02889 0L22.3244 20.2913L20.2955 22.3481Z" transform="translate(0.424805 0.42041)" fill="black"/>
<path fill-rule="evenodd" clip-rule="evenodd" d="M22.3244 2.05684L2.02889 22.3481L0 20.2913L20.2955 0L22.3244 2.05684Z" transform="translate(73.2515 0.42041)" fill="black"/>
<path fill-rule="evenodd" clip-rule="evenodd" d="M0 20.2913L20.2955 0L22.3244 2.05684L2.02889 22.3481L0 20.2913Z" transform="translate(0.424805 73.2305)" fill="black"/>
<path fill-rule="evenodd" clip-rule="evenodd" d="M20.2955 22.3481L0 2.05684L2.02889 0L22.3244 20.2913L20.2955 22.3481Z" transform="translate(73.2515 73.2305)" fill="black"/>
</svg>
