<svg width="24" height="24" viewBox="0 0 24 24" version="1.1" xmlns="http://www.w3.org/2000/svg">
<path d="M 16.1169 0L 7.32588 0C 3.28053 0 0 3.3585 0 7.5L 0 16.5C 0 20.6415 3.28053 24 7.32588 24L 16.1169 24C 20.1623 24 23.4428 20.6415 23.4428 16.5L 23.4428 7.5C 23.4428 3.3585 20.1623 0 16.1169 0ZM 21.2451 16.5C 21.2451 19.395 18.9447 21.75 16.1169 21.75L 7.32588 21.75C 4.49809 21.75 2.19777 19.395 2.19777 16.5L 2.19777 7.5C 2.19777 4.605 4.49809 2.25 7.32588 2.25L 16.1169 2.25C 18.9447 2.25 21.2451 4.605 21.2451 7.5L 21.2451 16.5Z"/>
<path d="M 5.86071 0C 2.62413 0 0 2.6865 0 6C 0 9.3135 2.62413 12 5.86071 12C 9.09728 12 11.7214 9.3135 11.7214 6C 11.7214 2.6865 9.09728 0 5.86071 0ZM 5.86071 9.75C 3.84169 9.75 2.19777 8.067 2.19777 6C 2.19777 3.9315 3.84169 2.25 5.86071 2.25C 7.87972 2.25 9.52365 3.9315 9.52365 6C 9.52365 8.067 7.87972 9.75 5.86071 9.75Z" transform="translate(5.86084 6)"/>
<path d="M 0.78094 1.599C 1.21224 1.599 1.56188 1.24105 1.56188 0.7995C 1.56188 0.357948 1.21224 0 0.78094 0C 0.349639 0 0 0.357948 0 0.7995C 0 1.24105 0.349639 1.599 0.78094 1.599Z" transform="translate(17.2407 4.75073)" fill="black"/>
</svg>
