<svg width="82" height="120" viewBox="0 0 82 120" version="1.1" xmlns="http://www.w3.org/2000/svg" xmlns:xlink="http://www.w3.org/1999/xlink">
<g data-name="Canvas" fill="none">
<g data-name="Logo">
<g data-name="&#208;&#154;">
<path d="M 1.302 22L 2.688 22L 2.688 16.638L 7.35 22L 9.31 22L 4.298 16.414L 8.82 11.892L 6.902 11.892L 2.688 16.316L 2.688 11.892L 1.302 11.892L 1.302 22Z" transform="translate(0 79)" fill="black"/>
</g>
<g data-name="&#208;&#163;">
<path d="M 39.3071 19.368L 37.8231 22L 39.3631 22L 44.3751 11.892L 42.7931 11.892L 40.0351 17.884L 40.0071 17.884L 37.2771 11.892L 35.7231 11.892L 39.3071 19.368Z" transform="translate(1 79)" fill="black"/>
</g>
<g data-name="&#208;&#145;">
<path d="M 73.3921 16.148L 73.3921 13.082L 78.2641 13.082L 78.2641 11.892L 71.9921 11.892L 71.9921 22L 75.6041 22C 76.5561 22 76.8921 21.958 77.3401 21.804C 78.5441 21.384 79.1741 20.432 79.1741 19.074C 79.1741 17.156 77.9701 16.148 75.6881 16.148L 73.3921 16.148ZM 73.3921 17.352L 75.7301 17.352C 76.9901 17.352 77.7041 17.982 77.7041 19.074C 77.7041 20.166 76.9901 20.796 75.7301 20.796L 73.3921 20.796L 73.3921 17.352Z" transform="translate(2 79)" fill="black"/>
</g>
<g data-name="Rectangle 4">
<rect width="78" height="78" stroke-width="2" transform="translate(2 1)" stroke="black"/>
</g>
<g data-name="Rectangle 4.1">
<rect width="44" height="44" stroke-width="2" transform="translate(19 18)" stroke="black"/>
</g>
<g data-name="Vector">
<path d="M 0 0L 17 17" stroke-width="2" transform="translate(2 1)" stroke="black"/>
</g>
<g data-name="Vector 2">
<path d="M 0 17L 17 0" stroke-width="2" transform="translate(63 1)" stroke="black"/>
</g>
<g data-name="Vector 3">
<path d="M 17 0L 0 17" stroke-width="2" transform="translate(2 62)" stroke="black"/>
</g>
<g data-name="Vector 4">
<path d="M 0 0L 17 17" stroke-width="2" transform="translate(63 62)" stroke="black"/>
</g>
</g>
</g>
</svg>

