<?xml version="1.0" encoding="utf-8"?>
<!-- Generator: Adobe Illustrator 22.0.1, SVG Export Plug-In . SVG Version: 6.00 Build 0)  -->
<svg version="1.1" id="Layer_1" xmlns="http://www.w3.org/2000/svg" xmlns:xlink="http://www.w3.org/1999/xlink" x="0px" y="0px"
	 viewBox="0 0 74.8 94.3" style="enable-background:new 0 0 74.8 94.3;" xml:space="preserve">
<style type="text/css">
	.st0{fill:none;stroke:#000000;stroke-width:2;}
</style>
<g id="Canvas">
	<g id="Logo">
		<path id="Ð_x9A_" d="M0.7,94.3h1.4v-5.4l4.7,5.4h2l-5-5.6l4.5-4.5H6.3l-4.2,4.4v-4.4H0.7V94.3z"/>
		<path id="Ð_xA3_" d="M36.7,91.7l-1.5,2.6h1.5l5-10.1h-1.6l-2.8,6h0l-2.7-6h-1.6L36.7,91.7z"/>
		<path id="Ð_x91_" d="M68.8,88.4v-3.1h4.9v-1.2h-6.3v10.1H71c1,0,1.3,0,1.7-0.2c1.2-0.4,1.8-1.4,1.8-2.7c0-1.9-1.2-2.9-3.5-2.9
			H68.8z M68.8,89.6h2.3c1.3,0,2,0.6,2,1.7c0,1.1-0.7,1.7-2,1.7h-2.3V89.6z"/>
		<g id="Rectangle_4" transform="translate(1.85352 1)">
			<rect x="-0.6" class="st0" width="72.3" height="72.3"/>
		</g>
		<g id="Rectangle_4.1" transform="translate(17.6099 16.7559)">
			<rect x="-0.6" y="0" class="st0" width="40.8" height="40.8"/>
		</g>
		<path id="Vector" class="st0" d="M1.3,1L17,16.8"/>
		<path id="Vector_2" class="st0" d="M57.8,16.8L73.6,1"/>
		<path id="Vector_3" class="st0" d="M17,57.5L1.3,73.3"/>
		<path id="Vector_4" class="st0" d="M57.8,57.5l15.8,15.8"/>
	</g>
</g>
</svg>
