<svg width="24" height="20" viewBox="0 0 24 20" version="1.1" xmlns="http://www.w3.org/2000/svg">
  <path d="M 23.4428 2.3085C 22.5711 2.7 21.6421 2.9595 20.6736 3.0855C 21.67 2.4765 22.4304 1.5195 22.7879 0.366C 21.859 0.933 20.8334 1.3335 19.7403 1.557C 18.8583 0.5955 17.6012 0 16.2298 0C 13.569 0 11.4269 2.211 11.4269 4.9215C 11.4269 5.3115 11.4591 5.6865 11.5383 6.0435C 7.54273 5.844 4.00726 3.8835 1.63221 0.897C 1.21756 1.6335 0.974343 2.4765 0.974343 3.384C 0.974343 5.088 1.83147 6.5985 3.10911 7.473C 2.33696 7.458 1.57946 7.2285 0.937713 6.867C 0.937713 6.882 0.937713 6.9015 0.937713 6.921C 0.937713 9.312 2.60362 11.298 4.7882 11.7555C 4.397 11.865 3.97063 11.9175 3.52815 11.9175C 3.22046 11.9175 2.90984 11.8995 2.61827 11.8335C 3.24097 13.782 5.00798 15.2145 7.10904 15.261C 5.4739 16.5705 3.39775 17.3595 1.15016 17.3595C 0.756031 17.3595 0.378016 17.3415 0 17.292C 2.1289 18.6975 4.65194 19.5 7.37277 19.5C 16.2166 19.5 21.0517 12 21.0517 5.499C 21.0517 5.2815 21.0443 5.0715 21.0341 4.863C 21.9879 4.17 22.7894 3.3045 23.4428 2.3085Z" fill="black"/>
</svg>
