<svg width="24" height="14" viewBox="0 0 24 14" version="1.1" xmlns="http://www.w3.org/2000/svg" xmlns:xlink="http://www.w3.org/1999/xlink">
<g id="Canvas" fill="none">
<g id="vk">
<g id="Group">
<g id="Group_2">
<g id="Vector">
<path d="M 23.2322 12.2131C 23.1692 12.1051 22.7794 11.2381 20.904 9.45613C 18.9407 7.59013 19.2044 7.89313 21.5692 4.66663C 23.0095 2.70163 23.5853 1.50163 23.4051 0.988627C 23.2336 0.499627 22.1743 0.628627 22.1743 0.628627L 18.652 0.649627C 18.652 0.649627 18.3912 0.613627 18.1964 0.732127C 18.0074 0.849127 17.8857 1.11913 17.8857 1.11913C 17.8857 1.11913 17.3275 2.64013 16.5832 3.93313C 15.014 6.66163 14.3854 6.80563 14.129 6.63613C 13.5327 6.24163 13.6821 5.04913 13.6821 4.20313C 13.6821 1.55863 14.0734 0.456127 12.9188 0.171127C 12.5349 0.0766269 12.2536 0.0136269 11.2734 0.00312694C 10.0163 -0.0103731 8.95109 0.00762693 8.34891 0.309127C 7.94745 0.510127 7.63829 0.958627 7.8273 0.984127C 8.06027 1.01563 8.58773 1.12963 8.86758 1.51963C 9.22948 2.02213 9.21629 3.15313 9.21629 3.15313C 9.21629 3.15313 9.42435 6.26563 8.73132 6.65263C 8.25513 6.91813 7.60313 6.37663 6.20389 3.90013C 5.48741 2.63263 4.9453 1.23013 4.9453 1.23013C 4.9453 1.23013 4.84127 0.969127 4.65519 0.829627C 4.42956 0.660127 4.11308 0.606127 4.11308 0.606127L 0.763684 0.627127C 0.763684 0.627127 0.261129 0.642127 0.0765163 0.865627C -0.0875835 1.06513 0.0633297 1.47613 0.0633297 1.47613C 0.0633297 1.47613 2.686 7.75663 5.65445 10.9231C 8.37821 13.8256 11.4697 13.6351 11.4697 13.6351L 12.8704 13.6351C 12.8704 13.6351 13.2939 13.5871 13.5093 13.3486C 13.7085 13.1296 13.7012 12.7186 13.7012 12.7186C 13.7012 12.7186 13.6734 10.7941 14.5466 10.5106C 15.4067 10.2316 16.5114 12.3706 17.6821 13.1941C 18.5671 13.8166 19.2396 13.6801 19.2396 13.6801L 22.3706 13.6351C 22.3706 13.6351 24.0087 13.5316 23.2322 12.2131Z" fill="black"/>
</g>
</g>
</g>
</g>
</g>
</svg>

